# xmcd
#
# Track frame offsets: 
#        182
#        27050
#        67090
#        91232
#        109747
#        137490
#        151280
#        168345
#        183912
#        196145
#        218080
#        235235
#
# Disc length: 3473 seconds
#
# Revision: 1
# Processed by: cddbd v1.5.1PL2 Copyright (c) Steve Scherf et al.
# Submitted via: ExactAudioCopy v0.95b3
#
DISCID=970d8f0c
DTITLE=Various Artist - Fireside Jazz
DYEAR=2001
DGENRE=Jazz
TTITLE0=Modern Jazz Quartet/Summertime
TTITLE1=Les McCann/Roberta
TTITLE2=Yusef Lateef/Stay With Me
TTITLE3=Ray Charles/Sweet Sixteen Bars
TTITLE4=Davis Newman/I Wish You Love
TTITLE5=Eddie Harris/Without You
TTITLE6=Hubert Laws/All Soul
TTITLE7=Mitchell-Ruff Trio/Street Of Dreams
TTITLE8=Dizzy Gillespie/Coctail For Two
TTITLE9=Eddie Harris/Winter Meeting
TTITLE10=Ray Bryant/Unil It's Time For You To Go
TTITLE11=Hank Crawford/Lorelei's Lament
EXTD=YEAR: 2001
EXTT0=
EXTT1=
EXTT2=
EXTT3=
EXTT4=
EXTT5=
EXTT6=
EXTT7=
EXTT8=
EXTT9=
EXTT10=
EXTT11=
PLAYORDER=
